<svg width="397" height="314" viewBox="0 0 397 314" fill="none" xmlns="http://www.w3.org/2000/svg">
<path d="M396.63 224.16H0.94043" stroke="#263238" stroke-width="1.08162" stroke-miterlimit="10"/>
<path d="M73.5195 108.84C73.5195 106.09 74.7895 104.07 77.6495 104.07C80.5095 104.07 81.8295 106.07 81.8295 108.84V118.5C81.8295 121.25 80.5595 123.27 77.6495 123.27C74.7395 123.27 73.5195 121.27 73.5195 118.5V108.84ZM74.7595 118.58C74.7595 120.58 75.5695 122.14 77.6495 122.14C79.7295 122.14 80.5895 120.63 80.5895 118.58V108.76C80.5895 106.76 79.7495 105.2 77.6495 105.2C75.5495 105.2 74.7595 106.71 74.7595 108.76V118.58Z" fill="white"/>
<path d="M83.7998 108.84C83.7998 106.09 85.0698 104.07 87.9198 104.07C90.7698 104.07 92.0998 106.07 92.0998 108.84V118.5C92.0998 121.25 90.8398 123.27 87.9198 123.27C84.9998 123.27 83.7998 121.27 83.7998 118.5V108.84ZM85.0398 118.58C85.0398 120.58 85.8498 122.14 87.9198 122.14C89.9898 122.14 90.8598 120.63 90.8598 118.58V108.76C90.8598 106.76 90.0298 105.2 87.9198 105.2C85.8098 105.2 85.0398 106.71 85.0398 108.76V118.58Z" fill="white"/>
<path d="M98.0594 104.23C100.979 104.23 102.109 106.07 102.109 108.82V110.87C102.109 113.87 100.729 115.34 97.7394 115.34H95.3894V123.11H94.1494V104.23H98.0594ZM97.7394 114.23C99.9194 114.23 100.869 113.23 100.869 110.97V108.76C100.869 106.71 100.169 105.39 98.0594 105.39H95.3894V114.23H97.7394Z" fill="white"/>
<path d="M111.93 108.79V109.19H110.74V108.71C110.74 106.71 109.99 105.2 107.94 105.2C105.89 105.2 105.13 106.69 105.13 108.68C105.13 113.27 111.95 113.35 111.95 118.55C111.95 121.27 110.77 123.27 107.88 123.27C104.99 123.27 103.81 121.27 103.81 118.55V117.55H105V118.55C105 120.55 105.78 122.03 107.86 122.03C109.94 122.03 110.71 120.57 110.71 118.55C110.71 114.02 103.89 113.94 103.89 108.68C103.89 105.85 105.13 104.02 107.89 103.99C110.65 103.96 111.93 106.07 111.93 108.79Z" fill="white"/>
<path d="M115 120.74V123.11H113.79V120.74H115Z" fill="white"/>
<path d="M118.399 120.74V123.11H117.189V120.74H118.399Z" fill="white"/>
<path d="M121.77 120.74V123.11H120.56V120.74H121.77Z" fill="white"/>
<path d="M29.2598 187.67L50.5098 137.42H63.2598V187.67H68.7798V198.29H63.2598V211.78H51.7798V198.29H29.2598V187.67ZM51.7798 187.67V159.73L39.9998 187.67H51.7798Z" fill="white"/>
<path d="M73.1396 155.26C73.1396 143.37 79.4097 136.57 90.8797 136.57C102.35 136.57 108.62 143.37 108.62 155.26V193.93C108.62 205.83 102.35 212.63 90.8797 212.63C79.4097 212.63 73.1396 205.83 73.1396 193.93V155.26ZM84.8196 194.68C84.8196 199.99 87.1597 202.01 90.8797 202.01C94.5997 202.01 96.9397 200.01 96.9397 194.68V154.52C96.9397 149.21 94.5997 147.19 90.8797 147.19C87.1597 147.19 84.8196 149.19 84.8196 154.52V194.68Z" fill="white"/>
<path d="M113.399 187.67L134.649 137.42H147.399V187.67H152.919V198.29H147.399V211.78H135.919V198.29H113.399V187.67ZM135.919 187.67V159.73L124.129 187.67H135.919Z" fill="white"/>
<path d="M34.3798 229.64C37.2398 229.64 38.3798 231.44 38.3798 234.13V236.13C38.3798 239.06 37.0298 240.52 34.0998 240.52H31.7998V248.12H30.5498V229.64H34.3798ZM34.0698 239.42C36.2098 239.42 37.1298 238.42 37.1298 236.22V234.05C37.1298 232.05 36.4498 230.75 34.3798 230.75H31.7698V239.42H34.0698Z" fill="white"/>
<path d="M41.5993 244L40.6693 248.09H39.5693L43.5693 229.57H45.3393L49.4593 248.09H48.2793L47.3593 244H41.5993ZM41.7793 242.94H47.1693L44.4493 230.94L41.7793 242.94Z" fill="white"/>
<path d="M59.2295 234.16V235.53H58.0595V234.08C58.0595 232.08 57.2995 230.59 55.2595 230.59C53.2195 230.59 52.4595 232.1 52.4595 234.08V243.7C52.4595 245.7 53.2295 247.16 55.2595 247.16C57.2895 247.16 58.0595 245.68 58.0595 243.7V239.7H55.6095V238.6H59.2295V243.6C59.2295 246.27 58.0595 248.27 55.2295 248.27C52.3995 248.27 51.2295 246.27 51.2295 243.6V234.14C51.2295 231.47 52.3895 229.46 55.2295 229.46C58.0695 229.46 59.2295 231.49 59.2295 234.16Z" fill="white"/>
<path d="M67.5198 238.2V239.31H62.5198V247H68.5898V248.1H61.2998V229.64H68.5898V230.75H62.5198V238.2H67.5198Z" fill="white"/>
<path d="M75.7399 248.13H74.6299V229.64H76.2199L81.7699 245.25V229.64H82.8799V248.13H81.5299L75.7399 231.65V248.13Z" fill="white"/>
<path d="M84.8896 234.16C84.8896 231.46 86.1296 229.48 88.8896 229.48C91.6496 229.48 92.9796 231.48 92.9796 234.16V243.62C92.9796 246.31 91.7396 248.29 88.8896 248.29C86.0396 248.29 84.8896 246.29 84.8896 243.62V234.16ZM86.0997 243.7C86.0997 245.7 86.8896 247.18 88.9296 247.18C90.9696 247.18 91.8096 245.7 91.8096 243.7V234.08C91.8096 232.08 90.9896 230.59 88.9296 230.59C86.8696 230.59 86.0997 232.07 86.0997 234.08V243.7Z" fill="white"/>
<path d="M98.1494 248.13V230.75H94.3994V229.64H103.139V230.75H99.3694V248.13H98.1494Z" fill="white"/>
<path d="M114.75 238.65V239.76H110V248.13H108.79V229.64H115.79V230.75H110V238.65H114.75Z" fill="white"/>
<path d="M117.55 234.16C117.55 231.46 118.79 229.48 121.55 229.48C124.31 229.48 125.65 231.48 125.65 234.16V243.62C125.65 246.31 124.4 248.29 121.55 248.29C118.7 248.29 117.55 246.29 117.55 243.62V234.16ZM118.76 243.7C118.76 245.7 119.56 247.18 121.59 247.18C123.62 247.18 124.47 245.7 124.47 243.7V234.08C124.47 232.08 123.65 230.59 121.59 230.59C119.53 230.59 118.76 232.07 118.76 234.08V243.7Z" fill="white"/>
<path d="M128.859 243.67C128.859 245.67 129.599 247.18 131.629 247.18C133.659 247.18 134.409 245.65 134.409 243.67V229.67H135.539V243.67C135.539 246.31 134.429 248.34 131.609 248.34C128.789 248.34 127.609 246.34 127.609 243.67V229.67H128.829L128.859 243.67Z" fill="white"/>
<path d="M138.74 248.13H137.63V229.64H139.22L144.77 245.25V229.64H145.88V248.13H144.53L138.74 231.65V248.13Z" fill="white"/>
<path d="M152 229.64C154.86 229.64 156.1 231.52 156.1 234.24V243.54C156.1 246.26 154.86 248.13 152 248.13H148V229.64H152ZM152 247C154.06 247 154.9 245.59 154.9 243.56V234.15C154.9 232.15 154.03 230.72 152 230.72H149.17V247H152Z" fill="white"/>
<path d="M373.659 23.1399C373.659 23.1399 373.659 18.1999 366.749 11.2999C359.839 4.39995 355.399 0.439941 355.399 0.439941C355.399 0.439941 351.949 11.7899 358.399 18.6999C363.11 23.5473 368.214 27.9958 373.659 31.9999V23.1399Z" fill="#0493B4"/>
<path d="M363.63 54C363.63 54 363.63 49.06 356.73 42.16C349.83 35.26 345.38 31.3 345.38 31.3C345.38 31.3 341.93 42.65 348.38 49.56C353.097 54.4173 358.212 58.8727 363.67 62.88L363.63 54Z" fill="#0493B4"/>
<path d="M373.22 31.5399C373.22 31.5399 373.75 26.6299 381.34 20.4899C388.93 14.3499 393.77 10.8999 393.77 10.8999C393.77 10.8999 396 22.5499 388.9 28.7399C383.696 33.0718 378.141 36.962 372.29 40.3699L373.22 31.5399Z" fill="#0493B4"/>
<path d="M361.11 67.9301C361.11 67.9301 362.11 63.1001 370.35 57.7901C378.59 52.4801 383.72 49.5601 383.72 49.5601C383.72 49.5601 384.72 61.3801 377 66.7901C371.368 70.5531 365.43 73.8379 359.25 76.6101L361.11 67.9301Z" fill="#0493B4"/>
<path d="M363.39 107.6C363.39 107.6 363.39 102.66 370.3 95.7599C377.21 88.8599 381.64 84.8999 381.64 84.8999C381.64 84.8999 385.1 96.2499 378.64 103.16C373.922 108.017 368.808 112.473 363.35 116.48L363.39 107.6Z" fill="#0493B4"/>
<path d="M363.28 117.28C363.28 117.28 363.979 112.4 358.119 104.58C352.259 96.76 348.429 92.22 348.429 92.22C348.429 92.22 343.429 102.96 348.769 110.71C352.745 116.189 357.17 121.327 362 126.07L363.28 117.28Z" fill="#0493B4"/>
<path d="M356.47 146C356.47 146 356.47 141.07 363.37 134.16C370.27 127.25 374.72 123.3 374.72 123.3C374.72 123.3 378.17 134.65 371.72 141.56C367.005 146.42 361.89 150.876 356.43 154.88L356.47 146Z" fill="#0493B4"/>
<path d="M361.08 172C361.08 172 359.83 167.22 364.76 158.79C369.69 150.36 373 145.42 373 145.42C373 145.42 379.21 155.52 374.76 163.83C371.424 169.723 367.604 175.329 363.34 180.59L361.08 172Z" fill="#0493B4"/>
<path d="M374.28 21.8699C373.933 27.0075 373.302 32.122 372.39 37.1899C369.66 51.2999 362.84 60.3999 360.11 73.1399C357.38 85.8799 365.21 102.29 363.11 118.66C361.01 135.03 354.65 144.12 356.47 155.05C358.29 165.98 367.84 195.54 367.84 195.54" stroke="#29282F" stroke-width="1.08162" stroke-linecap="round" stroke-linejoin="round"/>
<path d="M373.159 34.8199L380.599 29.1099" stroke="#29282F" stroke-width="1.08162" stroke-linecap="round" stroke-linejoin="round"/>
<path d="M373.5 28.24L370.39 22.7" stroke="#29282F" stroke-width="1.08162" stroke-linecap="round" stroke-linejoin="round"/>
<path d="M360.52 72.55C360.52 72.55 366.75 67.88 373.16 63.21" stroke="#29282F" stroke-width="1.08162" stroke-linecap="round" stroke-linejoin="round"/>
<path d="M363.63 62.8299C363.63 62.8299 358.44 52.6499 352.56 45.8999" stroke="#29282F" stroke-width="1.08162" stroke-linecap="round" stroke-linejoin="round"/>
<path d="M363.64 114.62C367.205 108.06 371.705 102.054 377 96.79" stroke="#29282F" stroke-width="1.08162" stroke-linecap="round" stroke-linejoin="round"/>
<path d="M362.42 121.54C360.53 117.089 358.272 112.804 355.67 108.73C352.04 103.36 351.52 102.67 351.52 102.67" stroke="#29282F" stroke-width="1.08162" stroke-linecap="round" stroke-linejoin="round"/>
<path d="M356.47 155.05C358.045 151.128 359.92 147.333 362.08 143.7C364.235 140.33 366.666 137.146 369.35 134.18" stroke="#29282F" stroke-width="1.08162" stroke-linecap="round" stroke-linejoin="round"/>
<path d="M363.329 180.59C362.968 176.846 363.61 173.074 365.189 169.66C367.789 164.66 370.729 158.06 371.939 155.47" stroke="#29282F" stroke-width="1.08162" stroke-linecap="round" stroke-linejoin="round"/>
<path d="M328.429 88.9998C328.429 88.9998 327.889 85.9098 331.479 80.8298C335.069 75.7498 337.409 72.8298 337.409 72.8298C337.409 72.8298 340.809 79.5698 337.539 84.5998C335.109 88.1567 332.383 91.5019 329.389 94.5998L328.429 88.9998Z" fill="#0493B4"/>
<path d="M338.06 107.28C338.06 107.28 337.52 104.18 341.11 99.0999C344.7 94.0199 347.04 91.0999 347.04 91.0999C347.04 91.0999 350.44 97.8398 347.17 102.87C344.74 106.427 342.013 109.772 339.02 112.87L338.06 107.28Z" fill="#0493B4"/>
<path d="M329.61 94.2701C329.61 94.2701 328.75 91.27 323.32 88.22C317.89 85.17 314.49 83.55 314.49 83.55C314.49 83.55 314.35 91.1001 319.49 94.2101C323.223 96.362 327.13 98.1984 331.17 99.7L329.61 94.2701Z" fill="#0493B4"/>
<path d="M341.159 115.77C341.159 115.77 339.989 112.86 334.269 110.42C328.549 107.98 324.989 106.71 324.989 106.71C324.989 106.71 325.649 114.23 331.069 116.78C335.012 118.526 339.092 119.941 343.269 121.01L341.159 115.77Z" fill="#0493B4"/>
<path d="M344 140.89C344 140.89 343.46 137.8 338.38 134.22C333.3 130.64 330.09 128.64 330.09 128.64C330.09 128.64 329.15 136.13 333.92 139.77C337.396 142.299 341.075 144.537 344.92 146.46L344 140.89Z" fill="#0493B4"/>
<path d="M345.159 147C345.159 147 344.159 144 347.009 138.48C349.859 132.96 351.749 129.68 351.749 129.68C351.749 129.68 356.069 135.87 353.539 141.31C351.642 145.178 349.424 148.881 346.909 152.38L345.159 147Z" fill="#0493B4"/>
<path d="M353.829 171.91C353.829 171.91 354.189 168.79 359.059 164.91C363.929 161.03 367.059 158.91 367.059 158.91C367.059 158.91 368.419 166.34 363.859 170.24C360.527 172.97 356.971 175.415 353.229 177.55L353.829 171.91Z" fill="#0493B4"/>
<path d="M352.55 164.21C352.55 164.21 352.01 161.12 346.93 157.53C341.85 153.94 338.64 151.96 338.64 151.96C338.64 151.96 337.7 159.45 342.47 163.09C345.946 165.619 349.625 167.857 353.47 169.78L352.55 164.21Z" fill="#0493B4"/>
<path d="M352.479 181C352.479 181 352.739 177.87 348.739 173.12C344.739 168.37 342.129 165.62 342.129 165.62C342.129 165.62 339.319 172.62 343.019 177.36C345.758 180.693 348.768 183.794 352.019 186.63L352.479 181Z" fill="#0493B4"/>
<path d="M327.899 88.3198C328.677 91.503 329.628 94.641 330.749 97.7198C333.989 106.27 339.259 111.23 342.359 118.93C345.459 126.63 342.359 137.77 345.409 147.8C348.459 157.83 353.489 162.8 353.529 169.89C353.569 176.98 350.789 196.53 350.789 196.53" stroke="#29282F" stroke-width="1.08162" stroke-linecap="round" stroke-linejoin="round"/>
<path d="M330.009 96.31L324.729 93.54" stroke="#29282F" stroke-width="1.08162" stroke-linecap="round" stroke-linejoin="round"/>
<path d="M329.08 92.2299L330.43 88.4199" stroke="#29282F" stroke-width="1.08162" stroke-linecap="round" stroke-linejoin="round"/>
<path d="M342 118.61C342 118.61 337.59 116.35 333.06 114.12" stroke="#29282F" stroke-width="1.08162" stroke-linecap="round" stroke-linejoin="round"/>
<path d="M339 112.84C340.301 108.728 342.02 104.761 344.13 101" stroke="#29282F" stroke-width="1.08162" stroke-linecap="round" stroke-linejoin="round"/>
<path d="M344.65 145.32C341.703 141.597 338.234 138.32 334.35 135.59" stroke="#29282F" stroke-width="1.08162" stroke-linecap="round" stroke-linejoin="round"/>
<path d="M346.159 149.53C346.859 146.536 347.809 143.605 348.999 140.77C350.699 137.01 350.949 136.52 350.949 136.52" stroke="#29282F" stroke-width="1.08162" stroke-linecap="round" stroke-linejoin="round"/>
<path d="M353.29 175.24C355.007 173.108 356.912 171.133 358.98 169.34C360.294 168.37 361.528 167.297 362.67 166.13" stroke="#29282F" stroke-width="1.08162" stroke-linecap="round" stroke-linejoin="round"/>
<path d="M353.529 169.89C352.114 167.605 350.526 165.432 348.779 163.39C347.062 161.513 345.192 159.78 343.189 158.21" stroke="#29282F" stroke-width="1.08162" stroke-linecap="round" stroke-linejoin="round"/>
<path d="M351.999 186.66C351.822 184.272 351.007 181.975 349.639 180.01C347.469 177.14 344.909 173.34 343.869 171.84" stroke="#29282F" stroke-width="1.08162" stroke-linecap="round" stroke-linejoin="round"/>
<path d="M374.48 230.2H344.07C343.309 230.197 342.581 229.894 342.043 229.356C341.506 228.819 341.202 228.09 341.2 227.33L336.68 193.11H381.86L377.35 227.33C377.347 228.09 377.044 228.819 376.506 229.356C375.969 229.894 375.24 230.197 374.48 230.2Z" fill="#ADADAD"/>
<path d="M381.469 199H336.679C335.743 199 334.845 198.628 334.183 197.966C333.521 197.304 333.149 196.406 333.149 195.47C333.148 195.006 333.238 194.545 333.415 194.116C333.592 193.687 333.852 193.296 334.18 192.967C334.508 192.639 334.897 192.378 335.326 192.2C335.755 192.022 336.215 191.93 336.679 191.93H381.469C381.934 191.93 382.395 192.022 382.824 192.199C383.254 192.377 383.644 192.638 383.973 192.967C384.301 193.296 384.562 193.686 384.74 194.115C384.918 194.545 385.009 195.005 385.009 195.47C385.007 196.407 384.633 197.305 383.969 197.967C383.305 198.628 382.407 199 381.469 199Z" fill="white"/>
<path d="M338.32 270.29C337.52 270.291 336.733 270.089 336.032 269.702C335.332 269.315 334.742 268.756 334.318 268.077C333.893 267.399 333.649 266.623 333.607 265.824C333.566 265.025 333.728 264.229 334.08 263.51C334.992 261.684 335.172 259.579 334.582 257.625C333.993 255.672 332.679 254.017 330.91 253C323.85 248.48 307.43 247.76 301.68 247.85H301.6C300.348 247.862 299.143 247.376 298.249 246.499C297.356 245.623 296.847 244.427 296.835 243.175C296.823 241.923 297.309 240.718 298.186 239.824C299.063 238.931 300.258 238.422 301.51 238.41C303.92 238.36 325.27 238.19 335.99 245.05C346.56 251.82 344.92 262.76 342.57 267.61C342.185 268.411 341.582 269.087 340.83 269.561C340.079 270.035 339.209 270.288 338.32 270.29Z" fill="#ADADAD"/>
<path d="M360.081 295.19L359.041 298.72L343.291 272.82L342.881 267.23L360.081 295.19Z" fill="white" stroke="#29282F" stroke-width="1.08162" stroke-linecap="round" stroke-linejoin="round"/>
<path d="M359.04 298.72L363.96 296.29L364.84 292.92L360.08 295.19L359.04 298.72Z" fill="white" stroke="#29282F" stroke-width="1.08162" stroke-linecap="round" stroke-linejoin="round"/>
<path d="M340.811 264.33L359.041 263.7L364.841 292.92L360.081 295.19L340.811 264.33Z" fill="white" stroke="#29282F" stroke-width="1.08162" stroke-linecap="round" stroke-linejoin="round"/>
<path d="M338.32 265.57L356.55 296.23L350.55 299.13L323.61 277.17L338.32 265.57Z" fill="white" stroke="#29282F" stroke-width="1.08162" stroke-linecap="round" stroke-linejoin="round"/>
<path d="M350.55 299.13L349.72 302.24L322.58 280.69L323.61 277.17L350.55 299.13Z" fill="white" stroke="#29282F" stroke-width="1.08162" stroke-linecap="round" stroke-linejoin="round"/>
<path d="M350.551 299.13L356.551 296.23L355.731 299.34L349.721 302.24L350.551 299.13Z" fill="white" stroke="#29282F" stroke-width="1.08162" stroke-linecap="round" stroke-linejoin="round"/>
<path d="M348.434 276.627C352.042 273.018 352.042 267.168 348.434 263.56C344.826 259.951 338.975 259.951 335.367 263.56C331.758 267.168 331.758 273.018 335.367 276.627C338.975 280.235 344.826 280.235 348.434 276.627Z" fill="#0493B4" stroke="#29282F" stroke-width="1.08162" stroke-linecap="round" stroke-linejoin="round"/>
<path d="M147.17 295.19L148.21 298.72L163.95 272.82L164.37 267.23L147.17 295.19Z" fill="white" stroke="#29282F" stroke-width="1.08162" stroke-linecap="round" stroke-linejoin="round"/>
<path d="M148.21 298.72L143.29 296.29L142.41 292.92L147.17 295.19L148.21 298.72Z" fill="white" stroke="#29282F" stroke-width="1.08162" stroke-linecap="round" stroke-linejoin="round"/>
<path d="M166.44 264.33L148.21 263.7L142.41 292.92L147.17 295.19L166.44 264.33Z" fill="white" stroke="#29282F" stroke-width="1.08162" stroke-linecap="round" stroke-linejoin="round"/>
<path d="M168.93 265.57L150.69 296.23L156.7 299.13L183.63 277.17L168.93 265.57Z" fill="white" stroke="#29282F" stroke-width="1.08162" stroke-linecap="round" stroke-linejoin="round"/>
<path d="M156.7 299.13L157.53 302.24L184.67 280.69L183.63 277.17L156.7 299.13Z" fill="white" stroke="#29282F" stroke-width="1.08162" stroke-linecap="round" stroke-linejoin="round"/>
<path d="M156.7 299.13L150.69 296.23L151.52 299.34L157.53 302.24L156.7 299.13Z" fill="white" stroke="#29282F" stroke-width="1.08162" stroke-linecap="round" stroke-linejoin="round"/>
<path d="M165.941 273.43C164.965 273.434 164.011 273.135 163.212 272.575C162.412 272.015 161.806 271.22 161.477 270.301C161.148 269.382 161.112 268.383 161.374 267.443C161.637 266.502 162.184 265.666 162.941 265.05C200.461 234.52 192.821 188.99 192.741 188.53C192.554 187.313 192.851 186.07 193.567 185.068C194.284 184.067 195.363 183.385 196.576 183.168C197.788 182.951 199.038 183.217 200.057 183.909C201.076 184.6 201.784 185.663 202.031 186.87C202.401 188.96 210.691 238.37 168.901 272.37C168.065 273.053 167.02 273.427 165.941 273.43Z" fill="#ADADAD"/>
<path d="M220.752 178.472C222.379 168.396 215.529 158.91 205.453 157.283C195.377 155.657 185.891 162.506 184.264 172.582C182.638 182.658 189.487 192.144 199.563 193.771C209.639 195.397 219.126 188.548 220.752 178.472Z" fill="#ADADAD" stroke="#29282F" stroke-width="1.08162" stroke-linecap="round" stroke-linejoin="round"/>
<path d="M171.877 276.624C175.486 273.015 175.486 267.165 171.877 263.556C168.269 259.948 162.418 259.948 158.81 263.556C155.202 267.165 155.202 273.015 158.81 276.624C162.418 280.232 168.269 280.232 171.877 276.624Z" fill="#0493B4" stroke="#29282F" stroke-width="1.08162" stroke-linecap="round" stroke-linejoin="round"/>
<path d="M251.99 251.63C268.189 251.63 281.32 239.38 281.32 224.27C281.32 209.159 268.189 196.91 251.99 196.91C235.792 196.91 222.66 209.159 222.66 224.27C222.66 239.38 235.792 251.63 251.99 251.63Z" fill="#ADADAD" stroke="#29282F" stroke-width="1.08162" stroke-linecap="round" stroke-linejoin="round"/>
<path d="M236.71 212.58L239.45 223.27C240.259 225.915 241.975 228.19 244.296 229.696C246.617 231.201 249.395 231.84 252.14 231.5C254.882 231.157 257.415 229.858 259.294 227.831C261.173 225.805 262.276 223.18 262.41 220.42L262.95 209.64L236.71 212.58Z" fill="#29282F" stroke="#29282F" stroke-width="1.08162" stroke-linecap="round" stroke-linejoin="round"/>
<path d="M294.531 158.79C291.763 158.83 289.005 158.453 286.351 157.67L287.111 155.44C287.241 155.44 300.371 159.71 313.741 149.93L315.131 151.84C309.191 156.314 301.966 158.751 294.531 158.79Z" fill="white"/>
<path d="M309.271 176.53C298.451 160.72 286.141 161.91 286.021 161.92L285.761 159.58C286.321 159.52 299.611 158.23 311.211 175.2L309.271 176.53Z" fill="white"/>
<path d="M306.531 187.7C292.531 183.39 284.121 164.75 283.761 163.96L285.921 162.96C286.001 163.15 294.261 181.41 307.231 185.4L306.531 187.7Z" fill="white"/>
<path d="M313.811 151.52L317.591 149" stroke="white" stroke-width="1.08162" stroke-miterlimit="10"/>
<path d="M309.19 173.77L311.71 178.8" stroke="white" stroke-width="1.08162" stroke-miterlimit="10"/>
<path d="M304.78 185.73C306.772 186.237 308.815 186.518 310.87 186.57" stroke="white" stroke-width="1.08162" stroke-miterlimit="10"/>
<path d="M198.631 155.32L202.121 179.73L288.971 170.85L288.651 145.49L198.631 155.32Z" fill="white" stroke="#29282F" stroke-width="1.08162" stroke-linecap="round" stroke-linejoin="round"/>
<path d="M202.12 179.73L217.65 219.03L284.53 212.37L288.97 170.85L202.12 179.73Z" fill="#E5E5E5" stroke="#29282F" stroke-width="1.08162" stroke-linecap="round" stroke-linejoin="round"/>
<path d="M223.07 190L229.17 208C229.605 209.299 230.477 210.406 231.636 211.136C232.795 211.865 234.171 212.17 235.53 212L262.32 209.08C263.673 208.915 264.927 208.291 265.874 207.312C266.821 206.332 267.402 205.057 267.52 203.7L269.18 184.77C269.236 184.15 269.154 183.526 268.938 182.942C268.723 182.358 268.38 181.829 267.934 181.395C267.489 180.96 266.953 180.63 266.364 180.428C265.775 180.227 265.149 180.159 264.53 180.23L226.6 184.47C225.975 184.539 225.372 184.747 224.838 185.079C224.303 185.411 223.85 185.859 223.511 186.39C223.172 186.92 222.957 187.52 222.881 188.145C222.804 188.769 222.869 189.403 223.07 190Z" fill="#29282F"/>
<path d="M223.07 199.89L234.13 198.91L237.64 189.38L245.9 204.23L250.1 193.16L252.2 196.67L272.24 194.28" stroke="white" stroke-width="1.08162" stroke-linecap="round" stroke-linejoin="round"/>
<path d="M223.07 190L229.17 208C229.605 209.299 230.477 210.406 231.636 211.136C232.795 211.865 234.171 212.17 235.53 212L262.32 209.08C263.673 208.915 264.927 208.291 265.874 207.312C266.821 206.332 267.402 205.057 267.52 203.7L269.18 184.77C269.236 184.15 269.154 183.526 268.938 182.942C268.723 182.358 268.38 181.829 267.934 181.395C267.489 180.96 266.953 180.63 266.364 180.428C265.775 180.227 265.149 180.159 264.53 180.23L226.6 184.47C225.975 184.539 225.372 184.747 224.838 185.079C224.303 185.411 223.85 185.859 223.511 186.39C223.172 186.92 222.957 187.52 222.881 188.145C222.804 188.769 222.869 189.403 223.07 190V190Z" stroke="#29282F" stroke-width="1.08162" stroke-linecap="round" stroke-linejoin="round"/>
<path d="M278.89 187.18C281.574 187.18 283.75 185.004 283.75 182.32C283.75 179.636 281.574 177.46 278.89 177.46C276.206 177.46 274.03 179.636 274.03 182.32C274.03 185.004 276.206 187.18 278.89 187.18Z" fill="white" stroke="#29282F" stroke-width="1.08162" stroke-linecap="round" stroke-linejoin="round"/>
<path d="M282.85 197.52C282.85 198.422 282.583 199.303 282.082 200.053C281.581 200.803 280.869 201.388 280.035 201.733C279.202 202.078 278.285 202.168 277.401 201.992C276.516 201.816 275.704 201.382 275.066 200.744C274.428 200.107 273.994 199.294 273.818 198.41C273.642 197.525 273.732 196.608 274.078 195.775C274.423 194.942 275.007 194.23 275.757 193.728C276.507 193.227 277.389 192.96 278.29 192.96C279.5 192.96 280.66 193.44 281.515 194.296C282.37 195.151 282.85 196.311 282.85 197.52Z" fill="#0493B4" stroke="#29282F" stroke-width="1.08162" stroke-linecap="round" stroke-linejoin="round"/>
<path d="M219.72 187.6C219.998 188.52 219.996 189.502 219.715 190.421C219.435 191.34 218.888 192.155 218.144 192.764C217.4 193.372 216.493 193.746 215.536 193.839C214.58 193.932 213.617 193.739 212.77 193.285C211.923 192.831 211.23 192.136 210.778 191.287C210.326 190.439 210.136 189.476 210.231 188.52C210.326 187.564 210.703 186.657 211.313 185.915C211.924 185.173 212.741 184.628 213.66 184.35C214.272 184.164 214.914 184.1 215.55 184.163C216.186 184.226 216.803 184.413 217.366 184.715C217.929 185.017 218.427 185.428 218.831 185.923C219.235 186.418 219.537 186.988 219.72 187.6Z" fill="#0493B4" stroke="#29282F" stroke-width="1.08162" stroke-linecap="round" stroke-linejoin="round"/>
<path d="M222.699 206.233C224.07 204.12 223.47 201.296 221.358 199.925C219.246 198.553 216.422 199.153 215.05 201.266C213.678 203.378 214.279 206.202 216.391 207.573C218.503 208.945 221.327 208.345 222.699 206.233Z" fill="white" stroke="#29282F" stroke-width="1.08162" stroke-linecap="round" stroke-linejoin="round"/>
<path d="M234.37 256.18C241.506 256.18 247.29 250.601 247.29 243.72C247.29 236.839 241.506 231.26 234.37 231.26C227.235 231.26 221.45 236.839 221.45 243.72C221.45 250.601 227.235 256.18 234.37 256.18Z" fill="#0493B4" stroke="#29282F" stroke-width="1.08162" stroke-linecap="round" stroke-linejoin="round"/>
<path d="M215.37 271.68L227.2 245.12C227.707 243.979 228.616 243.064 229.754 242.55C230.891 242.036 232.178 241.957 233.37 242.33C234.599 242.707 235.64 243.535 236.284 244.648C236.928 245.761 237.126 247.076 236.84 248.33L229.05 283.25L215.37 271.68Z" fill="#ADADAD" stroke="#29282F" stroke-width="1.08162" stroke-linecap="round" stroke-linejoin="round"/>
<path d="M211.42 231L237.25 291.79L206.25 296.05C206.25 296.05 187.71 277.2 175.25 241.34L211.42 231Z" fill="#ADADAD" stroke="#29282F" stroke-width="1.08162" stroke-linecap="round" stroke-linejoin="round"/>
<path d="M211.42 230.95L212.63 225.18L238.47 287.18L237.25 291.74L211.42 230.95Z" fill="white" stroke="#29282F" stroke-width="1.08162" stroke-linecap="round" stroke-linejoin="round"/>
<path d="M212.63 225.18L177.38 235.81L175.25 241.29L211.42 230.95L212.63 225.18Z" fill="white" stroke="#29282F" stroke-width="1.08162" stroke-linecap="round" stroke-linejoin="round"/>
<path d="M177.681 247.06L213.241 236.12" stroke="#29282F" stroke-width="1.08162" stroke-linecap="round" stroke-linejoin="round"/>
<path d="M180.41 253.44L216.28 243.72" stroke="#29282F" stroke-width="1.08162" stroke-linecap="round" stroke-linejoin="round"/>
<path d="M183.15 260.13L219.32 250.41" stroke="#29282F" stroke-width="1.08162" stroke-linecap="round" stroke-linejoin="round"/>
<path d="M187.101 268.34L222.361 258" stroke="#29282F" stroke-width="1.08162" stroke-linecap="round" stroke-linejoin="round"/>
<path d="M190.841 274.86L226.011 265.6" stroke="#29282F" stroke-width="1.08162" stroke-linecap="round" stroke-linejoin="round"/>
<path d="M194.7 280.82L229.05 272.59" stroke="#29282F" stroke-width="1.08162" stroke-linecap="round" stroke-linejoin="round"/>
<path d="M199.15 286.55L231.17 278.98" stroke="#29282F" stroke-width="1.08162" stroke-linecap="round" stroke-linejoin="round"/>
<path d="M202.301 291.23L234.111 285.97" stroke="#29282F" stroke-width="1.08162" stroke-linecap="round" stroke-linejoin="round"/>
<path d="M268.78 256.18C275.916 256.18 281.7 250.601 281.7 243.72C281.7 236.839 275.916 231.26 268.78 231.26C261.645 231.26 255.86 236.839 255.86 243.72C255.86 250.601 261.645 256.18 268.78 256.18Z" fill="#0493B4" stroke="#29282F" stroke-width="1.08162" stroke-linecap="round" stroke-linejoin="round"/>
<path d="M287.77 271.68L275.94 245.12C275.433 243.979 274.524 243.064 273.386 242.55C272.249 242.036 270.962 241.957 269.77 242.33C268.541 242.707 267.501 243.535 266.859 244.649C266.217 245.762 266.021 247.078 266.31 248.33L274.1 283.25L287.77 271.68Z" fill="#ADADAD" stroke="#29282F" stroke-width="1.08162" stroke-linecap="round" stroke-linejoin="round"/>
<path d="M291.731 231L265.891 291.79L296.891 296.05C296.891 296.05 315.431 277.2 327.891 241.34L291.731 231Z" fill="#ADADAD" stroke="#29282F" stroke-width="1.08162" stroke-linecap="round" stroke-linejoin="round"/>
<path d="M291.731 230.95L290.511 225.18L264.671 287.18L265.891 291.74L291.731 230.95Z" fill="white" stroke="#29282F" stroke-width="1.08162" stroke-linecap="round" stroke-linejoin="round"/>
<path d="M290.511 225.18L325.771 235.81L327.901 241.29L291.731 230.95L290.511 225.18Z" fill="white" stroke="#29282F" stroke-width="1.08162" stroke-linecap="round" stroke-linejoin="round"/>
<path d="M325.46 247.06L289.9 236.12" stroke="#29282F" stroke-width="1.08162" stroke-linecap="round" stroke-linejoin="round"/>
<path d="M322.73 253.44L286.86 243.72" stroke="#29282F" stroke-width="1.08162" stroke-linecap="round" stroke-linejoin="round"/>
<path d="M319.99 260.13L283.82 250.41" stroke="#29282F" stroke-width="1.08162" stroke-linecap="round" stroke-linejoin="round"/>
<path d="M316.04 268.34L280.78 258" stroke="#29282F" stroke-width="1.08162" stroke-linecap="round" stroke-linejoin="round"/>
<path d="M312.301 274.86L277.141 265.6" stroke="#29282F" stroke-width="1.08162" stroke-linecap="round" stroke-linejoin="round"/>
<path d="M308.441 280.82L274.101 272.59" stroke="#29282F" stroke-width="1.08162" stroke-linecap="round" stroke-linejoin="round"/>
<path d="M304.001 286.55L271.971 278.98" stroke="#29282F" stroke-width="1.08162" stroke-linecap="round" stroke-linejoin="round"/>
<path d="M300.84 291.23L269.03 285.97" stroke="#29282F" stroke-width="1.08162" stroke-linecap="round" stroke-linejoin="round"/>
<path d="M315.28 179.01L318.64 180.48" stroke="white" stroke-width="1.08162" stroke-miterlimit="10"/>
<path d="M313.181 180.27L316.541 185.52" stroke="white" stroke-width="1.08162" stroke-miterlimit="10"/>
<path d="M311.29 180.48L310.66 183.84" stroke="white" stroke-width="1.08162" stroke-miterlimit="10"/>
<path d="M319.48 158.65H327.66" stroke="white" stroke-width="1.08162" stroke-miterlimit="10"/>
<path d="M313.181 159.07L324.931 162.43" stroke="white" stroke-width="1.08162" stroke-miterlimit="10"/>
<path d="M317.591 154.67L325.141 153.62" stroke="white" stroke-width="1.08162" stroke-miterlimit="10"/>
<path d="M290.511 180.69L292.611 186.78" stroke="white" stroke-width="1.08162" stroke-miterlimit="10"/>
<path d="M293.24 180.27L299.11 189.93" stroke="white" stroke-width="1.08162" stroke-miterlimit="10"/>
<path d="M295.341 174.61L301.001 176.5" stroke="white" stroke-width="1.08162" stroke-miterlimit="10"/>
<path d="M326.611 171.46L324.721 173.52L326.091 175.96L323.541 174.79L321.651 176.85L321.971 174.07L319.431 172.9L322.171 172.35L322.501 169.57L323.871 172.01L326.611 171.46Z" fill="#0493B4" stroke="#29282F" stroke-width="0.540812" stroke-linecap="round" stroke-linejoin="round"/>
<path d="M329.55 143.75L327.65 145.81L329.03 148.25L326.48 147.08L324.59 149.14L324.91 146.36L322.37 145.19L325.11 144.64L325.43 141.86L326.81 144.3L329.55 143.75Z" fill="#0493B4" stroke="#29282F" stroke-width="0.540812" stroke-linecap="round" stroke-linejoin="round"/>
<path d="M298.901 192.24L297.011 194.3L298.381 196.74L295.841 195.57L293.941 197.63L294.261 194.85L291.721 193.68L294.461 193.13L294.791 190.35L296.161 192.79L298.901 192.24Z" fill="#0493B4" stroke="#29282F" stroke-width="0.540812" stroke-linecap="round" stroke-linejoin="round"/>
<path d="M208.3 146.45C216.093 146.45 222.41 140.204 222.41 132.5C222.41 124.795 216.093 118.55 208.3 118.55C200.508 118.55 194.19 124.795 194.19 132.5C194.19 140.204 200.508 146.45 208.3 146.45Z" fill="#ADADAD" stroke="#29282F" stroke-width="1.08162" stroke-linecap="round" stroke-linejoin="round"/>
<path d="M269.791 142.64C277.583 142.64 283.901 136.394 283.901 128.69C283.901 120.986 277.583 114.74 269.791 114.74C261.998 114.74 255.681 120.986 255.681 128.69C255.681 136.394 261.998 142.64 269.791 142.64Z" fill="#ADADAD" stroke="#29282F" stroke-width="1.08162" stroke-linecap="round" stroke-linejoin="round"/>
<path d="M241.421 174.97C251.224 174.97 259.171 167.377 259.171 158.01C259.171 148.643 251.224 141.05 241.421 141.05C231.618 141.05 223.671 148.643 223.671 158.01C223.671 167.377 231.618 174.97 241.421 174.97Z" fill="#0493B4" stroke="#29282F" stroke-width="1.08162" stroke-linecap="round" stroke-linejoin="round"/>
<path d="M228.431 149.3L230.881 160.06C231.613 162.727 233.263 165.049 235.541 166.617C237.819 168.185 240.578 168.898 243.331 168.63C246.082 168.363 248.65 167.135 250.585 165.161C252.52 163.188 253.698 160.595 253.911 157.84L254.741 147.08L228.431 149.3Z" fill="#29282F" stroke="#29282F" stroke-width="1.08162" stroke-linecap="round" stroke-linejoin="round"/>
<path d="M212.26 103.97L205.61 130.6L271.85 125.21L262.03 99.8499L212.26 103.97Z" fill="white" stroke="#29282F" stroke-width="1.08162" stroke-linecap="round" stroke-linejoin="round"/>
<path d="M205.61 130.6L217.33 159.76L269.32 154.69L271.85 125.21L205.61 130.6Z" fill="#E5E5E5" stroke="#29282F" stroke-width="1.08162" stroke-linecap="round" stroke-linejoin="round"/>
<path d="M235.4 142.49C235.22 146.63 231.6 149.89 227.27 150.22C222.94 150.55 218.7 147.84 217.77 143.74C216.77 139.04 220.28 134.42 225.83 134.07C231.38 133.72 235.59 137.77 235.4 142.49Z" fill="#0493B4" stroke="#29282F" stroke-width="1.08162" stroke-linecap="round" stroke-linejoin="round"/>
<path d="M232.091 142.72C232.036 144.029 231.492 145.269 230.566 146.196C229.64 147.122 228.399 147.666 227.091 147.72C225.762 147.864 224.427 147.514 223.339 146.738C222.252 145.962 221.487 144.813 221.191 143.51C220.701 140.67 222.931 138 226.191 137.78C226.905 137.7 227.629 137.766 228.318 137.974C229.006 138.181 229.646 138.526 230.197 138.988C230.749 139.45 231.201 140.019 231.526 140.66C231.852 141.302 232.044 142.002 232.091 142.72Z" fill="white" stroke="#29282F" stroke-width="1.08162" stroke-linecap="round" stroke-linejoin="round"/>
<path d="M264.871 139.64C264.701 143.78 261.081 147.04 256.751 147.37C252.421 147.7 248.171 144.99 247.251 140.88C246.201 136.19 249.761 131.57 255.311 131.21C260.861 130.85 265.071 134.92 264.871 139.64Z" fill="#0493B4" stroke="#29282F" stroke-width="1.08162" stroke-linecap="round" stroke-linejoin="round"/>
<path d="M261.56 139.87C261.508 141.18 260.965 142.421 260.038 143.348C259.112 144.275 257.87 144.818 256.56 144.87C255.231 145.011 253.896 144.659 252.808 143.881C251.721 143.104 250.956 141.954 250.66 140.65C250.17 137.81 252.4 135.15 255.66 134.93C256.376 134.847 257.1 134.911 257.79 135.117C258.48 135.324 259.121 135.669 259.673 136.131C260.225 136.593 260.677 137.163 261.001 137.806C261.326 138.449 261.516 139.151 261.56 139.87Z" fill="white" stroke="#29282F" stroke-width="1.08162" stroke-linecap="round" stroke-linejoin="round"/>
<path d="M235.72 154.51C235.111 154.516 234.523 154.286 234.079 153.869C233.635 153.452 233.37 152.879 233.339 152.27C233.308 151.661 233.514 151.065 233.913 150.604C234.312 150.144 234.874 149.855 235.48 149.8L248.16 148.53C248.784 148.467 249.406 148.655 249.891 149.052C250.376 149.449 250.683 150.022 250.745 150.645C250.808 151.268 250.62 151.891 250.223 152.375C249.827 152.86 249.254 153.167 248.63 153.23L236 154.5L235.72 154.51Z" fill="#29282F" stroke="#29282F" stroke-width="1.08162" stroke-linecap="round" stroke-linejoin="round"/>
<path d="M213.48 117.07C216.126 117.07 218.27 114.925 218.27 112.28C218.27 109.635 216.126 107.49 213.48 107.49C210.835 107.49 208.69 109.635 208.69 112.28C208.69 114.925 210.835 117.07 213.48 117.07Z" fill="#0493B4" stroke="#29282F" stroke-width="1.08162" stroke-linecap="round" stroke-linejoin="round"/>
<path d="M210.521 113.58C212.78 113.58 214.611 111.749 214.611 109.49C214.611 107.231 212.78 105.4 210.521 105.4C208.262 105.4 206.431 107.231 206.431 109.49C206.431 111.749 208.262 113.58 210.521 113.58Z" fill="#0493B4" stroke="#29282F" stroke-width="1.08162" stroke-linecap="round" stroke-linejoin="round"/>
<path d="M209.73 105.14C209.728 105.776 209.538 106.398 209.183 106.926C208.827 107.454 208.324 107.865 207.735 108.108C207.147 108.35 206.5 108.412 205.876 108.287C205.252 108.161 204.679 107.854 204.23 107.403C203.78 106.953 203.475 106.379 203.351 105.754C203.228 105.13 203.292 104.483 203.536 103.895C203.78 103.308 204.193 102.805 204.722 102.452C205.251 102.099 205.874 101.91 206.51 101.91C206.934 101.91 207.353 101.994 207.745 102.156C208.136 102.318 208.491 102.556 208.79 102.857C209.09 103.157 209.327 103.513 209.488 103.905C209.649 104.296 209.731 104.716 209.73 105.14Z" fill="#0493B4" stroke="#29282F" stroke-width="1.08162" stroke-linecap="round" stroke-linejoin="round"/>
<path d="M205.73 104.01L198.41 97.21" stroke="#29282F" stroke-width="1.08162" stroke-linecap="round" stroke-linejoin="round"/>
<path d="M260.52 113.76C263.166 113.76 265.31 111.615 265.31 108.97C265.31 106.324 263.166 104.18 260.52 104.18C257.875 104.18 255.73 106.324 255.73 108.97C255.73 111.615 257.875 113.76 260.52 113.76Z" fill="#0493B4" stroke="#29282F" stroke-width="1.08162" stroke-linecap="round" stroke-linejoin="round"/>
<path d="M263.481 110.27C265.739 110.27 267.571 108.439 267.571 106.18C267.571 103.921 265.739 102.09 263.481 102.09C261.222 102.09 259.391 103.921 259.391 106.18C259.391 108.439 261.222 110.27 263.481 110.27Z" fill="#0493B4" stroke="#29282F" stroke-width="1.08162" stroke-linecap="round" stroke-linejoin="round"/>
<path d="M264.271 101.83C264.272 102.466 264.463 103.088 264.818 103.616C265.173 104.144 265.677 104.555 266.265 104.798C266.854 105.04 267.501 105.102 268.125 104.977C268.749 104.851 269.322 104.544 269.771 104.093C270.22 103.642 270.526 103.069 270.649 102.444C270.773 101.82 270.708 101.173 270.464 100.585C270.22 99.9975 269.808 99.4952 269.278 99.1418C268.749 98.7885 268.127 98.5999 267.491 98.5999C267.067 98.5999 266.647 98.6835 266.256 98.8459C265.865 99.0083 265.509 99.2464 265.21 99.5465C264.911 99.8466 264.674 100.203 264.513 100.595C264.352 100.986 264.269 101.406 264.271 101.83Z" fill="#0493B4" stroke="#29282F" stroke-width="1.08162" stroke-linecap="round" stroke-linejoin="round"/>
<path d="M268.271 100.69L275.591 93.8999" stroke="#29282F" stroke-width="1.08162" stroke-linecap="round" stroke-linejoin="round"/>
<path d="M257.551 276.58C257.551 278.89 256.021 280.76 254.131 280.76C252.241 280.76 250.721 278.89 250.721 276.58C250.721 274.27 252.251 272.4 254.131 272.4C256.011 272.4 257.551 274.27 257.551 276.58Z" fill="white" stroke="#29282F" stroke-width="1.08162" stroke-linecap="round" stroke-linejoin="round"/>
<path d="M264.311 280.08H264.051L254.561 278.69C254.112 278.605 253.713 278.351 253.448 277.979C253.182 277.607 253.071 277.147 253.137 276.695C253.203 276.243 253.441 275.834 253.801 275.554C254.161 275.273 254.616 275.143 255.071 275.19L264.561 276.57C265.02 276.614 265.444 276.836 265.742 277.189C266.04 277.541 266.189 277.996 266.156 278.457C266.123 278.917 265.912 279.347 265.567 279.654C265.223 279.961 264.772 280.121 264.311 280.1V280.08Z" fill="white" stroke="#29282F" stroke-width="1.08162" stroke-miterlimit="10"/>
<path d="M131.681 296.12C130.441 294.17 130.681 291.77 132.321 290.77C133.961 289.77 136.201 290.52 137.441 292.46C138.681 294.4 138.391 296.81 136.791 297.82C135.191 298.83 132.911 298.07 131.681 296.12Z" fill="white" stroke="#29282F" stroke-width="1.08162" stroke-linecap="round" stroke-linejoin="round"/>
<path d="M124.09 296.79C124.164 296.744 124.241 296.704 124.32 296.67L133.08 292.76C133.505 292.593 133.977 292.596 134.398 292.769C134.82 292.942 135.159 293.27 135.345 293.686C135.53 294.103 135.548 294.574 135.395 295.004C135.241 295.433 134.928 295.786 134.52 295.99L125.76 299.9C125.352 300.081 124.891 300.101 124.469 299.956C124.046 299.812 123.694 299.513 123.483 299.119C123.272 298.726 123.217 298.268 123.33 297.836C123.442 297.404 123.714 297.03 124.09 296.79Z" fill="white" stroke="#29282F" stroke-width="1.08162" stroke-miterlimit="10"/>
<path d="M358.311 251.32C357.071 249.37 357.361 246.98 358.951 245.97C360.541 244.96 362.831 245.72 364.071 247.66C365.311 249.6 365.021 252.01 363.431 253.02C361.841 254.03 359.541 253.27 358.311 251.32Z" fill="white" stroke="#29282F" stroke-width="1.08162" stroke-linecap="round" stroke-linejoin="round"/>
<path d="M350.73 252L350.95 251.88L359.71 247.97C359.924 247.863 360.157 247.8 360.396 247.786C360.635 247.772 360.874 247.806 361.099 247.886C361.324 247.967 361.53 248.092 361.706 248.255C361.881 248.417 362.022 248.614 362.119 248.832C362.216 249.05 362.268 249.286 362.272 249.525C362.276 249.764 362.231 250.002 362.141 250.223C362.05 250.444 361.916 250.645 361.745 250.813C361.575 250.981 361.373 251.112 361.15 251.2L352.4 255.11C351.992 255.291 351.531 255.311 351.108 255.167C350.686 255.022 350.334 254.723 350.123 254.329C349.912 253.936 349.857 253.478 349.969 253.046C350.082 252.614 350.354 252.24 350.73 252Z" fill="white" stroke="#29282F" stroke-width="1.08162" stroke-miterlimit="10"/>
<path d="M189.18 298C185.18 298 181.96 299.92 181.96 302.28C181.96 304.64 185.19 306.56 189.18 306.56C193.17 306.56 196.41 304.64 196.41 302.28C196.41 299.92 193.17 298 189.18 298ZM189.18 304.49C187.12 304.49 185.45 303.49 185.45 302.28C185.45 301.07 187.12 300.07 189.18 300.07C191.24 300.07 192.92 301.07 192.92 302.28C192.92 303.49 191.25 304.49 189.18 304.49Z" fill="white" stroke="#29282F" stroke-width="1.08162" stroke-miterlimit="10"/>
<path d="M254.261 298.69L249.331 296.69L244.391 298.69L243.171 303.09L246.591 306.62H252.071L255.481 303.09L254.261 298.69ZM250.721 304.31H247.941L246.201 302.52L246.821 300.29L249.331 299.29L251.831 300.29L252.451 302.52L250.721 304.31Z" fill="white" stroke="#29282F" stroke-width="1.08162" stroke-linecap="round" stroke-linejoin="round"/>
<path d="M347.821 234.8L342.881 232.8L337.941 234.8L336.721 239.21L340.141 242.74H345.621L349.041 239.21L347.821 234.8ZM344.271 240.43H341.491L339.761 238.64L340.371 236.4L342.881 235.4L345.391 236.4L346.011 238.64L344.271 240.43Z" fill="white" stroke="#29282F" stroke-width="1.08162" stroke-linecap="round" stroke-linejoin="round"/>
<path d="M287.271 308.73C287.131 308.73 286.992 308.707 286.861 308.66C286.189 308.377 285.623 307.891 285.241 307.27C284.691 306.42 284.241 304.91 285.111 302.57C285.415 301.714 285.926 300.946 286.597 300.334C287.269 299.722 288.08 299.284 288.961 299.06C290.09 298.787 291.268 298.779 292.401 299.038C293.534 299.296 294.591 299.814 295.491 300.55C295.611 300.648 295.711 300.768 295.785 300.905C295.858 301.042 295.903 301.192 295.918 301.346C295.933 301.501 295.917 301.657 295.871 301.805C295.825 301.953 295.75 302.091 295.651 302.21C295.452 302.451 295.165 302.603 294.854 302.633C294.543 302.663 294.232 302.569 293.991 302.37C293.377 301.881 292.661 301.536 291.895 301.363C291.13 301.19 290.335 301.192 289.571 301.37C289.054 301.503 288.579 301.762 288.186 302.123C287.794 302.484 287.496 302.936 287.321 303.44C286.431 305.79 287.501 306.44 287.721 306.5C288.002 306.625 288.224 306.854 288.341 307.139C288.459 307.424 288.462 307.743 288.351 308.03C288.26 308.24 288.109 308.419 287.917 308.543C287.724 308.668 287.5 308.733 287.271 308.73Z" fill="white" stroke="#29282F" stroke-width="1.08162" stroke-linecap="round" stroke-linejoin="round"/>
<path d="M311.65 313.07C311.277 313.072 310.906 313.014 310.55 312.9L291.36 306.65C290.907 306.516 290.484 306.292 290.119 305.992C289.753 305.693 289.451 305.322 289.231 304.904C289.01 304.485 288.876 304.027 288.836 303.555C288.796 303.084 288.851 302.609 288.997 302.16C289.143 301.71 289.378 301.294 289.688 300.937C289.998 300.579 290.376 300.287 290.801 300.079C291.225 299.87 291.687 299.748 292.159 299.721C292.632 299.694 293.105 299.761 293.55 299.92L312.75 306.17C313.547 306.434 314.224 306.974 314.661 307.691C315.097 308.409 315.264 309.258 315.132 310.087C314.999 310.917 314.577 311.672 313.939 312.218C313.301 312.765 312.49 313.067 311.65 313.07Z" fill="white" stroke="#29282F" stroke-width="1.08162" stroke-linecap="round" stroke-linejoin="round"/>
<path d="M290.78 306.49C290.78 306.49 291.54 301.61 297.64 301.49" stroke="#29282F" stroke-width="1.08162" stroke-linecap="round" stroke-linejoin="round"/>
<path d="M294.891 307.55C294.891 307.55 295.661 302.68 301.751 302.55" stroke="#29282F" stroke-width="1.08162" stroke-linecap="round" stroke-linejoin="round"/>
<path d="M298.551 308.92C298.551 308.92 299.311 304.05 305.401 303.92" stroke="#29282F" stroke-width="1.08162" stroke-linecap="round" stroke-linejoin="round"/>
<path d="M302.36 310C302.36 310 303.12 305.13 309.21 305" stroke="#29282F" stroke-width="1.08162" stroke-linecap="round" stroke-linejoin="round"/>
<path d="M306.171 311.36C306.171 311.36 306.931 306.49 313.021 306.36" stroke="#29282F" stroke-width="1.08162" stroke-linecap="round" stroke-linejoin="round"/>
<path d="M311.641 313C311.504 312.997 311.368 312.97 311.241 312.92C310.565 312.643 309.995 312.16 309.611 311.54C309.061 310.69 308.611 309.18 309.481 306.83C309.789 305.976 310.3 305.21 310.971 304.598C311.642 303.986 312.452 303.548 313.331 303.32C314.461 303.048 315.639 303.042 316.772 303.302C317.905 303.563 318.962 304.082 319.861 304.82C319.981 304.918 320.081 305.038 320.155 305.175C320.228 305.312 320.274 305.462 320.288 305.616C320.303 305.771 320.287 305.927 320.241 306.075C320.195 306.223 320.12 306.361 320.021 306.48C319.822 306.721 319.535 306.873 319.224 306.903C318.913 306.933 318.602 306.839 318.361 306.64C317.748 306.15 317.031 305.805 316.266 305.632C315.5 305.459 314.705 305.461 313.941 305.64C313.424 305.77 312.948 306.026 312.555 306.386C312.163 306.745 311.865 307.197 311.691 307.7C310.801 310.06 311.871 310.7 312.091 310.76C312.339 310.868 312.543 311.059 312.668 311.299C312.794 311.539 312.834 311.815 312.781 312.081C312.729 312.346 312.587 312.586 312.38 312.761C312.172 312.935 311.912 313.034 311.641 313.04V313Z" fill="white" stroke="#29282F" stroke-width="1.08162" stroke-linecap="round" stroke-linejoin="round"/>
</svg>
