<svg id="Layer_1" data-name="Layer 1" xmlns="http://www.w3.org/2000/svg" width="62.7" height="55.862" viewBox="0 0 62.7 55.862">
  <path id="Path_12487" data-name="Path 12487" d="M46.937,46.321A1.017,1.017,0,0,1,45.92,45.3V42.1a1.017,1.017,0,0,1,2.023,0v3.264A1.006,1.006,0,0,1,46.937,46.321Z" transform="translate(5.509 4.819)" fill="#151515"/>
  <path id="Path_12488" data-name="Path 12488" d="M40.206,38.569A1.006,1.006,0,0,1,39.2,37.563V34.288a1.017,1.017,0,1,1,2.023,0v3.264a1.006,1.006,0,0,1-1.017,1.017Z" transform="translate(4.718 3.876)" fill="#151515"/>
  <path id="Path_12489" data-name="Path 12489" d="M40.206,46.316A1.006,1.006,0,0,1,39.2,45.3V42.091a1.017,1.017,0,0,1,2.012,0v3.264a1.017,1.017,0,0,1-1.006.961Z" transform="translate(4.718 4.824)" fill="#151515"/>
  <path id="Path_12490" data-name="Path 12490" d="M33.488,30.778a1.017,1.017,0,0,1-1.017-1.017V26.508a1.017,1.017,0,1,1,2.023,0v3.252a1.006,1.006,0,0,1-1.006,1.017Z" transform="translate(3.926 2.96)" fill="#151515"/>
  <path id="Path_12491" data-name="Path 12491" d="M33.488,38.569a1.006,1.006,0,0,1-1.017-1.006V34.288a1.017,1.017,0,1,1,2.023,0v3.264a1.006,1.006,0,0,1-1.006,1.017Z" transform="translate(3.926 3.876)" fill="#151515"/>
  <path id="Path_12492" data-name="Path 12492" d="M33.487,46.321A1.017,1.017,0,0,1,32.47,45.3V42.1a1.017,1.017,0,0,1,2.023,0v3.264A1.006,1.006,0,0,1,33.487,46.321Z" transform="translate(3.926 4.819)" fill="#151515"/>
  <path id="Path_12493" data-name="Path 12493" d="M61.482,50.214H1.028a1.017,1.017,0,1,1,0-2.023H61.482a1.017,1.017,0,1,1,0,2.023Z" transform="translate(0.095 5.643)" fill="#151515"/>
  <path id="Path_12494" data-name="Path 12494" d="M2.962,55.155A1.006,1.006,0,0,1,2,54.037V7.308a1.017,1.017,0,1,1,2.023,0V54.037a1.017,1.017,0,0,1-1.062,1.118Z" transform="translate(0.341 0.702)" fill="#151515"/>
  <path id="Path_12495" data-name="Path 12495" d="M8.838,55.155a1.017,1.017,0,0,1-1.017-1.118V7.308a1.017,1.017,0,1,1,2.023,0V54.037a1.006,1.006,0,0,1-1.006,1.118Z" transform="translate(1.026 0.702)" fill="#151515"/>
  <path id="Path_12496" data-name="Path 12496" d="M14.7,55.155a1.006,1.006,0,0,1-1.006-1.017V7.308a1.017,1.017,0,1,1,2.023,0V54.037A1.017,1.017,0,0,1,14.7,55.155Z" transform="translate(1.716 0.702)" fill="#151515"/>
  <path id="Path_12497" data-name="Path 12497" d="M20.568,55.155a1.017,1.017,0,0,1-1.017-1.017V7.308a1.017,1.017,0,1,1,2.023,0V54.037a1.006,1.006,0,0,1-1.006,1.118Z" transform="translate(2.406 0.702)" fill="#151515"/>
  <path id="Path_12498" data-name="Path 12498" d="M29.618,13.394H1.028a1.017,1.017,0,1,1,0-2.023H29.618a1.017,1.017,0,0,1,0,2.023Z" transform="translate(0.095 1.311)" fill="#151515"/>
  <path id="Path_12499" data-name="Path 12499" d="M27.314,22.644H20.608a1.017,1.017,0,1,1,0-2.023h6.706a1.017,1.017,0,0,1,0,2.023Z" transform="translate(2.399 2.399)" fill="#151515"/>
  <path id="Path_12500" data-name="Path 12500" d="M9.768,22.644H1.028a1.017,1.017,0,1,1,0-2.023h8.74a1.017,1.017,0,0,1,0,2.023Z" transform="translate(0.095 2.399)" fill="#151515"/>
  <path id="Path_12501" data-name="Path 12501" d="M28.7,31.884H8.848a1.017,1.017,0,1,1,0-2.023H28.7a1.017,1.017,0,0,1,0,2.023Z" transform="translate(1.015 3.486)" fill="#151515"/>
  <path id="Path_12502" data-name="Path 12502" d="M3.208,31.884H1.028a1.017,1.017,0,1,1,0-2.023H3.208a1.017,1.017,0,1,1,0,2.023Z" transform="translate(0.095 3.486)" fill="#151515"/>
  <path id="Path_12503" data-name="Path 12503" d="M22.878,41.124H1.028a1.017,1.017,0,1,1,0-2.023h21.85a1.017,1.017,0,0,1,0,2.023Z" transform="translate(0.095 4.573)" fill="#151515"/>
  <path id="Path_12504" data-name="Path 12504" d="M57.031,55.339H26.6a1.017,1.017,0,0,1-1.017-1.017V5.66a1.017,1.017,0,0,1,1.844-.615L34.13,14.9a1.04,1.04,0,0,1,.156.4l1.632,10.059,7.734,3.353a1.017,1.017,0,0,1,.458.38l4.471,7.086c1.017.615,5.678,3.431,8.941,5.409a1.039,1.039,0,0,1,.481.861V54.221a1.017,1.017,0,0,1-.972,1.118ZM27.6,53.26H56.014V43.045c-3.565-2.235-8.528-5.2-8.584-5.231a1,1,0,0,1-.324-.324l-4.471-7.019-7.969-3.465a1.051,1.051,0,0,1-.592-.771L32.4,15.852,27.6,8.934Z" transform="translate(3.116 0.517)" fill="#151515"/>
  <path id="Path_12505" data-name="Path 12505" d="M57.031,44.077a1.017,1.017,0,0,1-1.017-1.017V35.941h-3.42a1.006,1.006,0,0,1-.939-.637L49.42,29.5c-2.884-1.822-6.013-3.755-6.706-4.135-.894-.056-1.118-.715-2.079-10.338L33.616,7.508,27.6,3.037V6.2a1.017,1.017,0,1,1-2.023,0V1A1.017,1.017,0,0,1,27.168.2l7.7,5.745A1.464,1.464,0,0,1,35,6.066l7.209,7.824a1,1,0,0,1,.268.581c.391,3.766.894,7.935,1.118,9.154.838.436,2.682,1.542,7.086,4.336a1.017,1.017,0,0,1,.4.492l2.146,5.454h3.744a1.017,1.017,0,0,1,1.017,1.017v8.125A1.017,1.017,0,0,1,57.031,44.077ZM43.016,23.356a2.235,2.235,0,0,1,.279.1A1.028,1.028,0,0,0,43.016,23.356Z" transform="translate(3.115 -0.023)" fill="#151515"/>
  <path id="Path_12506" data-name="Path 12506" d="M36.925,18.042a1.017,1.017,0,0,1-1.006-.861l-.358-2.336a1.017,1.017,0,0,1,.626-1.118l3.766-1.52a1.008,1.008,0,0,1,.76,1.866l-3.029,1.263.235,1.554a1.006,1.006,0,0,1-.849,1.118Z" transform="translate(4.288 1.401)" fill="#151515"/>
  <path id="Path_12507" data-name="Path 12507" d="M41.536,28.362a1,1,0,0,1-.984-.8,1.006,1.006,0,0,1,.782-1.2l6.907-1.419a1.017,1.017,0,0,1,1.2.794,1.006,1.006,0,0,1-.794,1.185l-6.9,1.442A.726.726,0,0,1,41.536,28.362Z" transform="translate(4.875 2.906)" fill="#151515"/>
</svg>
