<svg xmlns="http://www.w3.org/2000/svg" width="69" height="61" viewBox="0 0 69 61">
  <g id="_4" data-name="4" transform="translate(-431 -1445)">
    <g id="Polygon_1" data-name="Polygon 1" transform="translate(431 1445)" fill="none">
      <path d="M32.759,3.078a2,2,0,0,1,3.482,0L67.312,58.015A2,2,0,0,1,65.571,61H3.429a2,2,0,0,1-1.741-2.985Z" stroke="none"/>
      <path d="M 34.5 4.875141143798828 L 4.114631652832031 58.60000228881836 L 64.88536071777344 58.60000228881836 L 34.5 4.875141143798828 M 34.5 2.062625885009766 C 35.17899703979492 2.062625885009766 35.85799789428711 2.401096343994141 36.24085998535156 3.078033447265625 L 67.31199645996094 58.01541137695312 C 68.06606292724609 59.34866714477539 67.10285186767578 61 65.57113647460938 61 L 3.428855895996094 61 C 1.897140502929688 61 0.9339447021484375 59.34866714477539 1.688003540039062 58.01541137695312 L 32.75913619995117 3.078033447265625 C 33.14199829101562 2.401096343994141 33.82099914550781 2.062625885009766 34.5 2.062625885009766 Z" stroke="none" fill="#151515"/>
    </g>
    <rect id="Rectangle_1061" data-name="Rectangle 1061" width="5" height="24" transform="translate(463 1464)" fill="#151515"/>
    <rect id="Rectangle_1062" data-name="Rectangle 1062" width="5" height="5" transform="translate(463 1492)" fill="#151515"/>
  </g>
</svg>
