<svg id="Layer_1" data-name="Layer 1" xmlns="http://www.w3.org/2000/svg" width="63.944" height="47.862" viewBox="0 0 63.944 47.862">
  <path id="Path_12446" data-name="Path 12446" d="M22.054,41.517H6.43a1.91,1.91,0,0,1-1.91-1.9V34.63a1.91,1.91,0,0,1,1.91-1.91H22.054a1.91,1.91,0,0,1,1.91,1.91v4.989A1.91,1.91,0,0,1,22.054,41.517ZM6.68,39.356H21.8V34.88H6.68Z" transform="translate(0.841 6.339)" fill="#151515"/>
  <path id="Path_12447" data-name="Path 12447" d="M36.522,41.517H20.9a1.9,1.9,0,0,1-1.9-1.9V34.63a1.91,1.91,0,0,1,1.9-1.91H36.522a1.91,1.91,0,0,1,1.91,1.91v4.989A1.91,1.91,0,0,1,36.522,41.517ZM21.16,39.356H36.272V34.88H21.16Z" transform="translate(3.645 6.339)" fill="#151515"/>
  <path id="Path_12448" data-name="Path 12448" d="M51,41.517H35.368a1.9,1.9,0,0,1-1.9-1.9V34.63a1.91,1.91,0,0,1,1.9-1.91H51a1.91,1.91,0,0,1,1.9,1.91v4.989a1.9,1.9,0,0,1-1.9,1.9ZM35.63,39.356H50.742V34.88H35.63Z" transform="translate(6.446 6.339)" fill="#151515"/>
  <path id="Path_12449" data-name="Path 12449" d="M37.424,35.957H21.8a1.91,1.91,0,0,1-1.91-1.9v-5a1.91,1.91,0,0,1,1.91-1.9H37.424a1.9,1.9,0,0,1,1.9,1.9v5A1.9,1.9,0,0,1,37.424,35.957ZM22.05,33.8H37.162v-4.44H22.05Z" transform="translate(3.817 5.263)" fill="#151515"/>
  <path id="Path_12450" data-name="Path 12450" d="M51.886,35.957H36.31a1.91,1.91,0,0,1-1.91-1.9v-5a1.91,1.91,0,0,1,1.91-1.9H51.886a1.91,1.91,0,0,1,1.91,1.9v5A1.91,1.91,0,0,1,51.886,35.957ZM36.513,33.8H51.636v-4.44H36.513Z" transform="translate(6.626 5.263)" fill="#151515"/>
  <path id="Path_12451" data-name="Path 12451" d="M35.312,30.433H19.688a1.9,1.9,0,0,1-1.9-1.9V23.5a1.9,1.9,0,0,1,1.9-1.9H35.312a1.91,1.91,0,0,1,1.91,1.9v5a1.91,1.91,0,0,1-1.91,1.934Zm-15.362-2.2H35.062V23.76H19.95Z" transform="translate(3.41 4.186)" fill="#151515"/>
  <path id="Path_12452" data-name="Path 12452" d="M49.782,30.433H34.158a1.9,1.9,0,0,1-1.9-1.9V23.5a1.9,1.9,0,0,1,1.9-1.9H49.782a1.91,1.91,0,0,1,1.91,1.9v5a1.91,1.91,0,0,1-1.91,1.934Zm-15.362-2.2H49.532V23.76H34.42Z" transform="translate(6.212 4.186)" fill="#151515"/>
  <path id="Path_12453" data-name="Path 12453" d="M38.9,24.845H23.31a1.91,1.91,0,0,1-1.91-1.9v-5A1.91,1.91,0,0,1,23.31,16H38.9a1.9,1.9,0,0,1,1.9,1.9v5a1.9,1.9,0,0,1-1.9,1.946Zm-15.374-2.16H38.636V18.208H23.525Z" transform="translate(4.109 3.102)" fill="#151515"/>
  <path id="Path_12454" data-name="Path 12454" d="M53.374,24.845H37.75a1.91,1.91,0,0,1-1.91-1.9v-5A1.91,1.91,0,0,1,37.75,16H53.374a1.91,1.91,0,0,1,1.91,1.9v5a1.91,1.91,0,0,1-1.91,1.946ZM38,22.684H53.124V18.208H38Z" transform="translate(6.905 3.102)" fill="#151515"/>
  <path id="Path_12455" data-name="Path 12455" d="M40.384,19.277H24.76a1.91,1.91,0,0,1-1.91-1.91V12.378a1.91,1.91,0,0,1,1.91-1.9H40.384a1.91,1.91,0,0,1,1.91,1.9v4.989a1.91,1.91,0,0,1-1.91,1.91ZM25.01,17.069H40.122V12.64H25.01Z" transform="translate(4.39 2.033)" fill="#151515"/>
  <path id="Path_12456" data-name="Path 12456" d="M54.842,19.277H39.23a1.91,1.91,0,0,1-1.91-1.91V12.378a1.91,1.91,0,0,1,1.91-1.9H54.842a1.91,1.91,0,0,1,1.91,1.9v4.989A1.91,1.91,0,0,1,54.842,19.277Zm-15.35-2.208H54.6V12.64H39.492Z" transform="translate(7.192 2.033)" fill="#151515"/>
  <path id="Path_12457" data-name="Path 12457" d="M24.2,19.277H18.3a1.086,1.086,0,0,1-1.086-1.086v-3.82a1.05,1.05,0,0,1,.179-.585L19.2,10.969a1.074,1.074,0,0,1,.907-.489H24.2a1.9,1.9,0,0,1,1.9,1.9v4.989a1.91,1.91,0,0,1-1.9,1.91Zm-4.858-2.208h4.572V12.64H20.7l-1.349,2.041Z" transform="translate(3.298 2.033)" fill="#151515"/>
  <path id="Path_12458" data-name="Path 12458" d="M23.121,24.837H14.766a1.062,1.062,0,0,1-.812-.37,1.015,1.015,0,0,1-.263-.847l.37-3.02a1.086,1.086,0,0,1,.561-.812l3.259-1.778v-.9a1.074,1.074,0,0,1,1.086-1.074H23.11a1.9,1.9,0,0,1,1.9,1.9v5a1.9,1.9,0,0,1-1.886,1.9Zm-7.162-2.16h6.875V18.2h-2.8v.454a1.074,1.074,0,0,1-.561.943l-3.342,1.826Z" transform="translate(2.615 3.11)" fill="#151515"/>
  <path id="Path_12459" data-name="Path 12459" d="M19.825,30.427H9.656A1.074,1.074,0,0,1,8.8,28.7l1.623-2.184a1.6,1.6,0,0,1,.251-.239l3.867-2.721.131-.979a1.086,1.086,0,0,1,1.074-.943h4.082a1.91,1.91,0,0,1,1.91,1.9v5A1.91,1.91,0,0,1,19.825,30.427Zm-8.009-2.16h7.758V23.755H16.686l-.072.513a1.074,1.074,0,0,1-.442.74l-4.118,2.9Z" transform="translate(1.626 4.192)" fill="#151515"/>
  <path id="Path_12460" data-name="Path 12460" d="M15.947,12.128a1,1,0,0,1-.418-.084l-8.952-3.8a1.9,1.9,0,0,1-1-2.483L7.52,1.194A1.922,1.922,0,0,1,8.558.144a1.874,1.874,0,0,1,1.456,0l10.623,4.5a1.11,1.11,0,0,1,.656.883,1.086,1.086,0,0,1-.477,1L18.31,8.237l-1.361,3.223a1.113,1.113,0,0,1-1,.668ZM7.663,6.363l7.711,3.27,1.074-2.471a1.062,1.062,0,0,1,.382-.477l1.134-.764L9.406,2.34Z" transform="translate(1.016 0.003)" fill="#151515"/>
  <path id="Path_12461" data-name="Path 12461" d="M5.107,22.44a1.91,1.91,0,0,1-1.826-1.277L1.646,16.388A1.886,1.886,0,0,1,2.839,14l10.85-3.772a1.086,1.086,0,0,1,1.373.668l.513,1.456a1.086,1.086,0,0,1-.215,1.086l-2.53,2.829.5,2.387a1.086,1.086,0,0,1-.7,1.194L5.776,22.237A1.957,1.957,0,0,1,5.107,22.44Zm-1.3-6.505L5.274,20.16l5.717-1.981-.43-2.005a1.05,1.05,0,0,1,.263-.943l2.232-2.471Z" transform="translate(0.266 1.973)" fill="#151515"/>
  <path id="Path_12462" data-name="Path 12462" d="M3.575,28.877a1.862,1.862,0,0,1-.836-.191A1.922,1.922,0,0,1,1.773,27.6L.138,22.825a1.838,1.838,0,0,1,.084-1.444,1.886,1.886,0,0,1,1.086-.967l10.91-3.784a1.086,1.086,0,0,1,.883.072,1.062,1.062,0,0,1,.525.728l.3,1.432a1.11,1.11,0,0,1-.179.847l-3.008,4.142-.764,2.387a1.086,1.086,0,0,1-.68.692l-5.156,1.79a1.886,1.886,0,0,1-.561.155ZM2.262,22.419l1.432,4.213L8.1,25.1l.656-2.053a1.015,1.015,0,0,1,.155-.3l2.519-3.509Z" transform="translate(-0.028 3.212)" fill="#151515"/>
  <path id="Path_12463" data-name="Path 12463" d="M22.958,35.963H7.31a1.91,1.91,0,0,1-1.91-1.9V30.759A1.074,1.074,0,0,1,6.307,29.7l1.755-.334,1.349-1.8a1.1,1.1,0,0,1,.859-.43H22.958a1.9,1.9,0,0,1,1.9,1.9v5a1.9,1.9,0,0,1-1.9,1.934ZM7.584,33.8H22.7v-4.44H10.759L9.53,31.045a1.062,1.062,0,0,1-.68.418l-1.265.215Z" transform="translate(1.012 5.257)" fill="#151515"/>
  <path id="Path_12464" data-name="Path 12464" d="M21.115,9.8a.991.991,0,0,1-.406-.084,1.074,1.074,0,0,1-.6-1.4l1.361-3.45a1.086,1.086,0,1,1,2.017.8l-1.373,3.45a1.086,1.086,0,0,1-1,.68Z" transform="translate(3.845 0.805)" fill="#151515"/>
  <path id="Path_12465" data-name="Path 12465" d="M24.325,9.405a1.05,1.05,0,0,1-.9-.489,1.062,1.062,0,0,1,.3-1.492L25.34,6.35a1.086,1.086,0,0,1,1.5.3,1.1,1.1,0,0,1-.31,1.5L24.922,9.226A1.086,1.086,0,0,1,24.325,9.405Z" transform="translate(4.466 1.198)" fill="#151515"/>
  <path id="Path_12466" data-name="Path 12466" d="M7.815,10.744H7.648l-3.1-.537a1.078,1.078,0,0,1,.37-2.125l3.1.537a1.074,1.074,0,0,1-.179,2.137Z" transform="translate(0.673 1.566)" fill="#151515"/>
  <path id="Path_12467" data-name="Path 12467" d="M62.014,40.441H1.785a1.086,1.086,0,1,1,0-2.16h60.23a1.086,1.086,0,0,1,0,2.16Z" transform="translate(0.079 7.415)" fill="#151515"/>
</svg>
