<svg id="Layer_1" data-name="Layer 1" xmlns="http://www.w3.org/2000/svg" width="43.953" height="66.662" viewBox="0 0 43.953 66.662">
  <path id="Path_12470" data-name="Path 12470" d="M28.519,53.874H6.316A1.074,1.074,0,0,1,5.23,52.8V44.038a1.086,1.086,0,0,1,2.161,0v7.675H27.432v-7.64a1.086,1.086,0,0,1,2.161,0V52.8a1.074,1.074,0,0,1-1.074,1.074Z" transform="translate(1.025 8.347)"/>
  <path id="Path_12471" data-name="Path 12471" d="M7.077,48.479a1.062,1.062,0,0,1-1.062-.943L1,9.374A1.062,1.062,0,0,1,1.933,8.18L23.968,5.291a1.074,1.074,0,0,1,1.194.931L26.2,14.2a1.074,1.074,0,0,1-.931,1.194,1.086,1.086,0,0,1-1.194-.931l-.907-6.888L3.305,10.161l4.858,37.1a1.062,1.062,0,0,1-.931,1.194Z" transform="translate(0.204 1.03)"/>
  <path id="Path_12472" data-name="Path 12472" d="M4.612,10.52a1.1,1.1,0,0,1-1.074-.943L3,5.6a1.1,1.1,0,0,1,.931-1.194L20.154,2.271a1.074,1.074,0,0,1,1.194.931l.525,3.975a1.122,1.122,0,0,1-.215.8,1.086,1.086,0,0,1-.716.418l-16.2,2.113ZM5.3,6.389l.239,1.838L19.6,6.389l-.251-1.838Z" transform="translate(0.592 0.445)"/>
  <path id="Path_12473" data-name="Path 12473" d="M9.409,6.16a1.086,1.086,0,0,1-1.074-.943L7.881,1.7A1.086,1.086,0,0,1,8.812.5L12.477,0A1.086,1.086,0,0,1,13.67.932l.454,3.509a1.086,1.086,0,0,1-.931,1.194l-3.665.477ZM10.161,2.5l.179,1.373,1.528-.2-.179-1.373Z" transform="translate(1.537 0.005)"/>
  <path id="Path_12474" data-name="Path 12474" d="M33.264,56.911H2.9A1.074,1.074,0,0,1,1.81,55.837V51.4A1.086,1.086,0,0,1,2.9,50.31H33.264A1.074,1.074,0,0,1,34.338,51.4v4.44a1.074,1.074,0,0,1-1.074,1.074Zm-29.293-2.2H32.177V52.471H3.971Z" transform="translate(0.363 9.751)"/>
  <path id="Path_12475" data-name="Path 12475" d="M5.1,17.438a3.486,3.486,0,0,1-.454-6.947L21.875,8.235A3.486,3.486,0,0,1,25.1,13.822a3.438,3.438,0,0,1-2.316,1.3L5.557,17.4Zm17.273-7.09H22.2L4.925,12.628a1.33,1.33,0,1,0,.346,2.638L22.507,13.01a1.361,1.361,0,0,0,.883-.5,1.337,1.337,0,0,0,.263-.991,1.3,1.3,0,0,0-.513-.871A1.194,1.194,0,0,0,22.376,10.348Z" transform="translate(0.316 1.595)"/>
  <path id="Path_12476" data-name="Path 12476" d="M6.129,25.381a3.5,3.5,0,0,1-.442-6.959l11.364-1.48a1.074,1.074,0,1,1,.334,2.077L5.962,20.511a1.33,1.33,0,1,0,.346,2.638l3.915-.513a1.078,1.078,0,0,1,.286,2.137l-3.868.513a2.793,2.793,0,0,1-.513.1Z" transform="translate(0.532 3.274)"/>
  <path id="Path_12477" data-name="Path 12477" d="M7.194,33.216a3.486,3.486,0,0,1-.454-6.947l4.118-.537a1.074,1.074,0,0,1,1.194.931,1.062,1.062,0,0,1-.931,1.194l-4.106.537a1.33,1.33,0,0,0,.346,2.638l3.868-.549a1.086,1.086,0,0,1,.275,2.149l-3.856.5A2.96,2.96,0,0,1,7.194,33.216Z" transform="translate(0.721 4.989)"/>
  <path id="Path_12478" data-name="Path 12478" d="M8.244,41.179a3.486,3.486,0,0,1-.454-6.947l2.387-.31a1.077,1.077,0,0,1,.275,2.137l-2.387.31a1.33,1.33,0,1,0,.346,2.638l5.527-.716a1.078,1.078,0,0,1,.286,2.137L8.7,41.143Z" transform="translate(0.924 6.575)"/>
  <path id="Path_12479" data-name="Path 12479" d="M26.141,50.554H8.761a3.5,3.5,0,1,1,0-6.983h17.38a3.5,3.5,0,0,1,0,6.983ZM8.761,45.779a1.337,1.337,0,1,0,0,2.662h17.38a1.337,1.337,0,0,0,0-2.662Z" transform="translate(0.992 8.444)"/>
  <path id="Path_12480" data-name="Path 12480" d="M35.812,56.2H1.088a1.1,1.1,0,1,1,0-2.2H35.812a1.086,1.086,0,0,1,0,2.161Z" transform="translate(0.01 10.465)"/>
  <path id="Path_12481" data-name="Path 12481" d="M31.287,48.943a1.027,1.027,0,0,1-.657-.227l-4.99-3.879L22.729,47.9a1.05,1.05,0,0,1-1.1.286,1.074,1.074,0,0,1-.752-.859L20.2,43.01l-2.734,1.767A1.074,1.074,0,0,1,15.817,43.7l.74-4.679-3.808.525a1.074,1.074,0,0,1-.967-1.767l4.62-5.4-3.45-3.963a1.086,1.086,0,0,1,.931-1.791l5.085.561.286-3.784a1.074,1.074,0,0,1,.585-.9,1.05,1.05,0,0,1,1.074.06L24.7,24.962,26.31,18.5a1.086,1.086,0,0,1,1.027-.824,1.05,1.05,0,0,1,1.05.776l2.244,7.675,5.025-1.42a1.074,1.074,0,0,1,1.122.346,1.05,1.05,0,0,1,.143,1.194L34.534,31.1l2.71,1.11c4.584,1.9,4.584,1.9,4.417,2.781a1.086,1.086,0,0,1-.824.848c-.37.107-3.163,1.039-5.6,1.862l4.082,3.963a1.086,1.086,0,0,1-.871,1.85l-7.162-.764,1.074,4.882A1.1,1.1,0,0,1,31.3,48.943Zm-5.765-6.637a1.05,1.05,0,0,1,.657.227l3.414,2.65L28.8,41.745a1.015,1.015,0,0,1,.251-.943,1.074,1.074,0,0,1,.919-.358l5.551.585-3.1-3.02a1.086,1.086,0,0,1,.406-1.8l4.631-1.552L32.6,32.661a1.11,1.11,0,0,1-.6-.609,1.074,1.074,0,0,1,0-.859l1.791-3.7-3.748,1.05A1.062,1.062,0,0,1,28.8,27.8l-1.42-4.858-.967,4.047a1.074,1.074,0,0,1-.657.74,1.05,1.05,0,0,1-1.015-.119l-3.509-2.244-.179,3.044a1.086,1.086,0,0,1-1.194,1.015l-3.474-.382,2.244,2.59a1.074,1.074,0,0,1,0,1.409l-3.366,3.951,2.387-.334a1.015,1.015,0,0,1,.919.31,1.05,1.05,0,0,1,.3.919l-.585,3.748,2.161-1.325a1.122,1.122,0,0,1,1.027-.072,1.1,1.1,0,0,1,.633.824l.585,3.772,2.065-2.2A1.122,1.122,0,0,1,25.522,42.306Z" transform="translate(2.243 3.431)"/>
  <path id="Path_12482" data-name="Path 12482" d="M20.111,21.011H20a1.086,1.086,0,0,1-1-1.194l.418-4.059a1.062,1.062,0,0,1,.836-.943,1.074,1.074,0,0,1,1.194.489l1.743,2.9a1.086,1.086,0,0,1-.382,1.48,1.074,1.074,0,0,1-1.42-.346l-.072-.119-.084.836a1.086,1.086,0,0,1-1.122.955Z" transform="translate(3.691 2.869)"/>
  <path id="Path_12483" data-name="Path 12483" d="M15.435,24.288a1.038,1.038,0,0,1-.776-.346l-1.611-1.707a1.077,1.077,0,0,1,1.564-1.48l1.611,1.707a1.086,1.086,0,0,1-.788,1.826Z" transform="translate(2.482 3.961)"/>
  <path id="Path_12484" data-name="Path 12484" d="M29.016,23.425h-.143a1.074,1.074,0,0,1-.931-1.194l.251-2.077a1.086,1.086,0,0,1,1.194-.943,1.074,1.074,0,0,1,.943,1.194l-.251,2.137A1.062,1.062,0,0,1,29.016,23.425Z" transform="translate(5.422 3.726)"/>
  <path id="Path_12485" data-name="Path 12485" d="M21.164,35.47a1.074,1.074,0,0,1-1.062-.919l-.549-3.581a1.062,1.062,0,0,1,.2-.824,1.11,1.11,0,0,1,.728-.418l2.936-.358a1.086,1.086,0,0,1,.263,2.149l-1.826.227.382,2.471a1.1,1.1,0,0,1-.907,1.194Z" transform="translate(3.796 5.695)"/>
  <path id="Path_12486" data-name="Path 12486" d="M26.4,36.081a1.11,1.11,0,0,1-.633-.2l-2.387-1.707a1.074,1.074,0,0,1-.251-1.5,1.086,1.086,0,0,1,1.516-.251l1.134.824.454-1.456a1.08,1.08,0,0,1,2.065.633l-.883,2.9a1.122,1.122,0,0,1-.692.716A1.194,1.194,0,0,1,26.4,36.081Z" transform="translate(4.453 6.014)"/>
</svg>
