<svg xmlns="http://www.w3.org/2000/svg" width="62.992" height="66.086" viewBox="0 0 62.992 66.086">
  <g id="_1" data-name="1" transform="translate(-0.017 -0.004)">
    <g id="Layer_1" data-name="Layer 1" transform="translate(0.017 0.004)">
      <path id="Path_12429" data-name="Path 12429" d="M42.064,20.528a1.273,1.273,0,0,1-.356-.064,1.159,1.159,0,0,1-.738-1.451l1.833-5.64-4.927-1.591-1.833,5.64a1.159,1.159,0,0,1-1.451.738,1.146,1.146,0,0,1-.738-1.451l2.19-6.735A1.159,1.159,0,0,1,36.6,9.3a1.108,1.108,0,0,1,.878,0l7.129,2.19a1.146,1.146,0,0,1,.738,1.451l-2.19,6.735A1.159,1.159,0,0,1,42.064,20.528Z" transform="translate(9.243 2.517)" fill="#151515"/>
      <path id="Path_12430" data-name="Path 12430" d="M31.938,17.22a1.146,1.146,0,0,1-.356,0l-7.091-2.292a1.2,1.2,0,0,1-.675-.573,1.171,1.171,0,0,1-.064-.878l2.19-6.735a1.159,1.159,0,0,1,1.451-.751l7.091,2.317a1.146,1.146,0,0,1,.738,1.451l-2.228,6.671a1.146,1.146,0,0,1-1.057.789ZM26.3,13.032l4.9,1.591,1.477-4.545-4.9-1.591Z" transform="translate(6.47 1.616)" fill="#151515"/>
      <path id="Path_12431" data-name="Path 12431" d="M39.129,29.532a1.146,1.146,0,0,1-.356,0l-7.091-2.3a1.2,1.2,0,0,1-.675-.573,1.12,1.12,0,0,1-.064-.878l2.19-6.735a1.133,1.133,0,0,1,1.451-.738l7.091,2.3a1.12,1.12,0,0,1,.675.573,1.273,1.273,0,0,1,0,.878l-2.19,6.735A1.159,1.159,0,0,1,39.129,29.532Zm-5.64-4.188,4.9,1.591,1.477-4.545-4.9-1.591Z" transform="translate(8.439 4.992)" fill="#151515"/>
      <path id="Path_12432" data-name="Path 12432" d="M29.009,26.238a1.1,1.1,0,0,1-.356,0l-7.091-2.317a1.133,1.133,0,0,1-.738-1.451,1.159,1.159,0,0,1,1.515-.789l6,1.961L29.811,19.1l-6-1.961a1.133,1.133,0,0,1-.738-1.451,1.159,1.159,0,0,1,1.388-.675l7.091,2.317a1.159,1.159,0,0,1,.738,1.451L30.1,25.449a1.133,1.133,0,0,1-.573.662,1.1,1.1,0,0,1-.522.127Z" transform="translate(5.666 4.094)" fill="#151515"/>
      <path id="Path_12433" data-name="Path 12433" d="M36.189,38.563a1.273,1.273,0,0,1-.356,0l-7.091-2.3a1.171,1.171,0,0,1-.726-1.515l2.19-6.735a1.273,1.273,0,0,1,.573-.662,1.184,1.184,0,0,1,.878-.076l7.1,2.317a1.151,1.151,0,0,1-.713,2.19L32.038,29.83l-1.477,4.532,6,1.961a1.146,1.146,0,0,1-.356,2.241Z" transform="translate(7.634 7.452)" fill="#151515"/>
      <path id="Path_12434" data-name="Path 12434" d="M26.067,35.265a1.273,1.273,0,0,1-.356,0L18.62,32.923a1.057,1.057,0,0,1-.662-.573,1.171,1.171,0,0,1-.076-.878l2.19-6.735a1.171,1.171,0,0,1,1.451-.726l7.1,2.3a1.175,1.175,0,0,1,.738,1.464l-2.2,6.735A1.133,1.133,0,0,1,26.067,35.265Zm-5.64-4.2,4.9,1.591,1.477-4.532-4.94-1.566Z" transform="translate(4.863 6.558)" fill="#151515"/>
      <path id="Path_12435" data-name="Path 12435" d="M35.707,53.15h-.1a1.133,1.133,0,0,1-.9-.573,6.76,6.76,0,0,0-11.292-.751,1.171,1.171,0,0,1-.878.446,1.273,1.273,0,0,1-.917-.407,4.418,4.418,0,0,0-1.5-1.159,1.146,1.146,0,0,1-.637-1.273,8.377,8.377,0,0,0,.178-1.68,7.779,7.779,0,0,0-6.225-7.639,1.184,1.184,0,0,1-.764-.56,1.133,1.133,0,0,1-.1-.929L24.86.8A1.146,1.146,0,0,1,26.311.062L58.138,10.425a1.12,1.12,0,0,1,.675.573,1.171,1.171,0,0,1,.076.878L47.967,45.563a1.184,1.184,0,0,1-.6.687A4.15,4.15,0,0,0,45.2,48.8a1.133,1.133,0,0,1-1.184.815h-.662a8.784,8.784,0,0,0-6.76,3.157A1.171,1.171,0,0,1,35.707,53.15Zm-6.9-6.365a9.115,9.115,0,0,1,7.053,3.361,11.038,11.038,0,0,1,7.473-2.9,6.442,6.442,0,0,1,2.546-2.852L56.42,12.259,26.693,2.609,15.134,38.191a10.185,10.185,0,0,1,6.824,9.548,9.383,9.383,0,0,1-.089,1.273,5.7,5.7,0,0,1,.56.407,8.912,8.912,0,0,1,6.378-2.61Z" transform="translate(3.429 -0.004)" fill="#151515"/>
      <path id="Path_12436" data-name="Path 12436" d="M53.23,57.977H6.095A1.121,1.121,0,0,1,5.05,57.29,8.907,8.907,0,0,1,7.279,46.965a10.086,10.086,0,1,1,17.02-7.32,9.377,9.377,0,0,1-.089,1.273,5.71,5.71,0,0,1,.561.407,8.921,8.921,0,0,1,6.37-2.635A9.124,9.124,0,0,1,38.2,42.051a11.024,11.024,0,0,1,7.465-2.9A6.37,6.37,0,0,1,51.5,35.405a6.457,6.457,0,0,1,6.446,6.442,6.363,6.363,0,0,1-1.834,4.468,11.1,11.1,0,0,1-1.988,11.217A1.134,1.134,0,0,1,53.23,57.977Zm-46.371-2.3H52.721a8.781,8.781,0,0,0,1.822-5.347,8.627,8.627,0,0,0-.854-3.819,1.171,1.171,0,0,1,.331-1.413,4.122,4.122,0,1,0-6.459-4.43,1.134,1.134,0,0,1-1.185.815h-.662a8.793,8.793,0,0,0-6.765,3.157,1.147,1.147,0,0,1-.994.407,1.134,1.134,0,0,1-.9-.573,6.767,6.767,0,0,0-11.3-.751,1.172,1.172,0,0,1-.879.446,1.274,1.274,0,0,1-.917-.407,4.42,4.42,0,0,0-1.5-1.159,1.146,1.146,0,0,1-.637-1.273,8.372,8.372,0,0,0,.178-1.68A7.783,7.783,0,1,0,9.815,46.01a1.146,1.146,0,0,1,.5.98,1.158,1.158,0,0,1-.548.942,6.67,6.67,0,0,0-3.249,5.729,6.362,6.362,0,0,0,.344,2.011Z" transform="translate(1.103 8.103)" fill="#151515"/>
      <path id="Path_12437" data-name="Path 12437" d="M29.247,47.954h-.166a1.158,1.158,0,0,1-.98-1.273,11.152,11.152,0,0,1,15.608-8.53,1.159,1.159,0,1,1-.955,2.1,8.708,8.708,0,0,0-3.641-.777,8.912,8.912,0,0,0-8.733,7.549,1.133,1.133,0,0,1-1.133.929Z" transform="translate(7.678 10.182)" fill="#151515"/>
      <path id="Path_12438" data-name="Path 12438" d="M12.282,46.324H12.1a9.956,9.956,0,0,1-5.462-2.712,1.159,1.159,0,0,1,0-1.63,1.146,1.146,0,0,1,1.63,0,7.753,7.753,0,0,0,4.214,2.088,1.159,1.159,0,0,1-.166,2.292Z" transform="translate(1.7 11.404)" fill="#151515"/>
      <path id="Path_12439" data-name="Path 12439" d="M25.236,53.7a1.07,1.07,0,0,1-.344,0,1.146,1.146,0,0,1-.764-1.439,4.558,4.558,0,0,0,.2-1.375,4.634,4.634,0,0,0-4.621-4.634,3.82,3.82,0,0,0-.662,0,1.159,1.159,0,0,1-.318-2.292,8.259,8.259,0,0,1,.98-.064,6.938,6.938,0,0,1,6.926,6.938,7.1,7.1,0,0,1-.306,2.1A1.159,1.159,0,0,1,25.236,53.7Z" transform="translate(4.852 12.021)" fill="#151515"/>
      <path id="Path_12440" data-name="Path 12440" d="M60.792,52.376H2.323a1.158,1.158,0,0,1,0-2.3H60.792a1.159,1.159,0,1,1,0,2.3Z" transform="translate(0.329 13.704)" fill="#151515"/>
      <path id="Path_12441" data-name="Path 12441" d="M2.669,43.8a1.171,1.171,0,0,1-.98-.547L.161,40.778a1.159,1.159,0,0,1,1.973-1.209l1.515,2.47a1.146,1.146,0,0,1-.369,1.579A1.273,1.273,0,0,1,2.669,43.8Z" transform="translate(-0.017 10.692)" fill="#151515"/>
      <path id="Path_12442" data-name="Path 12442" d="M3.822,32.541a1.146,1.146,0,0,1-1.069-.7l-1.171-2.75a1.163,1.163,0,0,1,2.126-.942L4.879,30.9a1.146,1.146,0,0,1-1.057,1.6Z" transform="translate(0.382 7.514)" fill="#151515"/>
      <path id="Path_12443" data-name="Path 12443" d="M9.035,28.566A1.146,1.146,0,0,1,7.9,27.573l-.331-2.393a1.159,1.159,0,0,1,2.292-.318l.318,2.406a1.133,1.133,0,0,1-.993,1.273Z" transform="translate(2.044 6.547)" fill="#151515"/>
      <path id="Path_12444" data-name="Path 12444" d="M45.378,34.064a1.146,1.146,0,0,1-.687-.229,1.159,1.159,0,0,1-.242-1.617L45.721,30.5a1.151,1.151,0,0,1,1.846,1.375l-1.273,1.719A1.171,1.171,0,0,1,45.378,34.064Z" transform="translate(12.091 8.22)" fill="#151515"/>
      <path id="Path_12445" data-name="Path 12445" d="M47.339,45.061A1.159,1.159,0,0,1,46.613,43L48.5,41.534a1.15,1.15,0,1,1,1.439,1.8L48.09,44.806a1.159,1.159,0,0,1-.751.255Z" transform="translate(12.625 11.306)" fill="#151515"/>
    </g>
  </g>
</svg>
